<svg width="72" height="72" viewBox="0 0 72 72" fill="none" xmlns="http://www.w3.org/2000/svg">
<g opacity="0.8">
<path d="M62.5861 48.5345L65.25 38.5453V32.625C64.1059 19.4072 52.8844 9 39.375 9H34.875V32.625H18.5847L16.0754 21.5482C15.8543 20.5452 15.2983 19.6474 14.4989 19.0025C13.6995 18.3575 12.7043 18.004 11.6772 18H2.25V22.5H11.6772L17.369 47.6255C15.3379 48.1635 13.4982 49.2597 12.058 50.7897C10.6179 52.3196 9.63509 54.2224 9.22083 56.2822C8.80656 58.3421 8.97745 60.4769 9.71412 62.4446C10.4508 64.4124 11.7238 66.1345 13.389 67.416C15.0541 68.6974 17.0448 69.4869 19.1356 69.695C21.2264 69.9031 23.3337 69.5216 25.2188 68.5935C27.1039 67.6655 28.6914 66.2281 29.8016 64.4442C30.9117 62.6603 31.5001 60.6011 31.5 58.5C31.5 58.1203 31.4813 57.7453 31.4438 57.375H46.1812C46.1442 57.7451 46.1255 58.1201 46.125 58.5C46.1242 60.495 46.6538 62.4544 47.6598 64.1772C48.6657 65.9001 50.1117 67.3244 51.8495 68.3043C53.5873 69.2842 55.5544 69.7843 57.5491 69.7534C59.5439 69.7225 61.4946 69.1617 63.2012 68.1286C64.9079 67.0954 66.309 65.6269 67.2612 63.8738C68.2133 62.1206 68.6821 60.1458 68.6195 58.1518C68.5569 56.1577 67.9651 54.2162 66.9049 52.5262C65.8447 50.8362 64.3542 49.4586 62.5861 48.5345ZM39.375 13.5C50.4015 13.5 59.5048 21.8922 60.6324 32.625H39.375V13.5ZM20.25 65.25C18.915 65.25 17.6099 64.8541 16.4999 64.1124C15.3899 63.3707 14.5247 62.3165 14.0138 61.0831C13.5029 59.8497 13.3692 58.4925 13.6297 57.1831C13.8902 55.8738 14.533 54.671 15.477 53.727C16.421 52.783 17.6238 52.1401 18.9331 51.8797C20.2425 51.6192 21.5997 51.7529 22.8331 52.2638C24.0665 52.7747 25.1207 53.6399 25.8624 54.7499C26.6041 55.8599 27 57.165 27 58.5C26.998 60.2896 26.2861 62.0053 25.0207 63.2707C23.7553 64.5361 22.0396 65.248 20.25 65.25ZM47.6385 52.875H29.9865C29.1407 51.4131 27.9773 50.1599 26.5823 49.208C25.1872 48.2561 23.596 47.6298 21.9264 47.3754L19.6042 37.125H60.75V37.9547L58.2609 47.2877C57.9662 47.2634 57.6707 47.2507 57.375 47.2496C55.4013 47.2511 53.4627 47.7717 51.7538 48.759C50.0449 49.7464 48.6256 51.1659 47.6385 52.875ZM57.375 65.25C56.04 65.25 54.7349 64.8541 53.6249 64.1124C52.5149 63.3707 51.6497 62.3165 51.1388 61.0831C50.6279 59.8497 50.4942 58.4925 50.7547 57.1831C51.0151 55.8738 51.658 54.671 52.602 53.727C53.546 52.783 54.7488 52.1401 56.0581 51.8797C57.3675 51.6192 58.7247 51.7529 59.9581 52.2638C61.1915 52.7747 62.2457 53.6399 62.9874 54.7499C63.7291 55.8599 64.125 57.165 64.125 58.5C64.123 60.2896 63.4111 62.0053 62.1457 63.2707C60.8803 64.5361 59.1646 65.248 57.375 65.25Z" fill="white" stroke="white"/>
</g>
</svg>
