<svg width="205" height="147" viewBox="0 0 205 147" fill="none" xmlns="http://www.w3.org/2000/svg">
<path d="M43.5714 58.5672C40.4011 53.1545 38.7206 46.9832 38.7041 40.6929C38.7041 18.5485 59.4755 0.589844 85.0973 0.589844C105.576 0.589844 122.942 12.0672 129.094 27.9751C135.766 24.372 143.43 23.1041 150.889 24.3694C158.349 25.6347 165.184 29.362 170.326 34.969C175.469 40.576 178.629 47.7469 179.314 55.3614C179.998 62.9759 178.168 70.6053 174.11 77.0575C191.459 78.5597 205 91.6995 205 107.692C205 124.697 189.672 138.478 170.771 138.478C161.208 138.567 152.002 134.815 145.174 128.047C141.676 133.485 136.914 137.975 131.305 141.124C125.695 144.274 119.408 145.987 112.993 146.116C106.577 146.244 100.228 144.783 94.4996 141.86C88.7712 138.937 83.8378 134.641 80.1299 129.347C70.9588 137.925 58.8874 142.63 46.3932 142.495C20.7713 142.495 0 123.684 0 100.485C0 78.1545 19.2602 59.8921 43.5714 58.5672Z" fill="white"/>
</svg>
