<svg width="1439" height="333" viewBox="0 0 1439 333" fill="none" xmlns="http://www.w3.org/2000/svg">
<rect width="1439" height="333" fill="white"/>
<path d="M539.97 261.827C598.004 258.443 681.225 240.454 722.119 173.139C781.325 75.7125 678.436 54.0032 617.629 75.0613C477.34 123.638 617.553 -35.4248 443.196 46.2375C231.921 145.17 286.189 276.635 539.97 261.827Z" fill="#C0E9FF" fill-opacity="0.25"/>
<path d="M943.091 56.7786L942.837 57.0065L942.957 57.3257L947.088 68.3521L935.095 61.3996L934.852 61.2584L934.605 61.3934L921.618 68.4904L925.304 54.4825L925.393 54.1431L925.104 53.9437L916.429 47.9585L928.962 46.8754L929.284 46.8476L929.391 46.5422L933.988 33.3876L938.87 46.4171L938.994 46.7486L939.348 46.7416L954.584 46.4381L943.091 56.7786Z" stroke="#FFCD4B"/>
<path d="M996.59 80.0641L996.337 80.2921L996.457 80.6113L999.694 89.2508L990.255 83.7792L990.012 83.638L989.765 83.773L979.488 89.389L982.404 78.3089L982.493 77.9695L982.204 77.7701L975.429 73.0959L985.268 72.2455L985.591 72.2177L985.697 71.9123L989.317 61.5553L993.161 71.8134L993.285 72.1449L993.639 72.1379L1005.67 71.8983L996.59 80.0641Z" stroke="#FFCD4B"/>
<path d="M987.559 133.078L987.306 133.306L987.426 133.625L989.194 138.346L983.951 135.306L983.707 135.165L983.46 135.299L977.633 138.484L979.284 132.211L979.373 131.871L979.084 131.672L975.429 129.151L980.846 128.682L981.169 128.654L981.275 128.349L983.289 122.586L985.428 128.293L985.552 128.625L985.906 128.618L992.667 128.483L987.559 133.078Z" stroke="#FFCD4B"/>
</svg>
