<svg width="1439" height="699" viewBox="0 0 1439 699" fill="none" xmlns="http://www.w3.org/2000/svg">
<rect width="1439" height="699" fill="url(#paint0_linear_50_17)"/>
<path d="M77.4337 431.094C75.5104 427.804 74.4909 424.052 74.4809 420.228C74.4809 406.766 87.0824 395.848 102.627 395.848C115.051 395.848 125.586 402.826 129.319 412.497C133.366 410.306 138.016 409.535 142.541 410.305C147.067 411.074 151.213 413.34 154.333 416.748C157.453 420.157 159.37 424.516 159.785 429.145C160.201 433.774 159.091 438.412 156.629 442.335C167.153 443.248 175.369 451.236 175.369 460.958C175.369 471.296 166.07 479.674 154.603 479.674C148.801 479.728 143.216 477.447 139.074 473.333C136.951 476.639 134.063 479.368 130.659 481.283C127.256 483.197 123.442 484.239 119.55 484.317C115.658 484.395 111.806 483.507 108.331 481.73C104.855 479.953 101.862 477.341 99.6129 474.123C94.049 479.338 86.7256 482.198 79.1457 482.116C63.6015 482.116 51 470.68 51 456.577C51 443.002 62.6847 431.9 77.4337 431.094Z" fill="white" fill-opacity="0.15"/>
<path d="M293.434 276.171C291.51 272.88 290.491 269.129 290.481 265.305C290.481 251.843 303.082 240.925 318.627 240.925C331.051 240.925 341.586 247.902 345.319 257.573C349.366 255.383 354.016 254.612 358.541 255.381C363.067 256.15 367.213 258.416 370.333 261.825C373.453 265.234 375.37 269.593 375.785 274.222C376.201 278.851 375.091 283.489 372.629 287.412C383.153 288.325 391.369 296.313 391.369 306.035C391.369 316.373 382.07 324.751 370.603 324.751C364.801 324.805 359.216 322.524 355.074 318.41C352.951 321.716 350.063 324.445 346.659 326.36C343.256 328.274 339.442 329.316 335.55 329.394C331.658 329.472 327.806 328.584 324.331 326.807C320.855 325.03 317.862 322.418 315.613 319.2C310.049 324.415 302.726 327.275 295.146 327.193C279.601 327.193 267 315.757 267 301.654C267 288.079 278.685 276.976 293.434 276.171Z" fill="white" fill-opacity="0.35"/>
<path d="M72.4337 131.576C70.5104 128.285 69.4909 124.534 69.4809 120.71C69.4809 107.248 82.0824 96.3301 97.6266 96.3301C110.051 96.3301 120.586 103.307 124.319 112.978C128.366 110.788 133.016 110.017 137.541 110.786C142.067 111.555 146.213 113.821 149.333 117.23C152.453 120.639 154.37 124.998 154.785 129.627C155.201 134.256 154.091 138.894 151.629 142.817C162.153 143.73 170.369 151.718 170.369 161.44C170.369 171.778 161.07 180.156 149.603 180.156C143.801 180.21 138.216 177.929 134.074 173.815C131.951 177.12 129.063 179.85 125.659 181.764C122.256 183.679 118.442 184.721 114.55 184.799C110.658 184.877 106.806 183.988 103.331 182.211C99.8554 180.434 96.8624 177.823 94.6129 174.605C89.049 179.82 81.7256 182.68 74.1457 182.598C58.6015 182.598 46 171.162 46 157.059C46 143.484 57.6847 132.381 72.4337 131.576Z" fill="white" fill-opacity="0.25"/>
<path d="M471.434 475.224C469.51 471.933 468.491 468.182 468.481 464.358C468.481 450.895 481.082 439.978 496.627 439.978C509.051 439.978 519.586 446.955 523.319 456.626C527.366 454.436 532.016 453.665 536.541 454.434C541.067 455.203 545.213 457.469 548.333 460.878C551.453 464.287 553.37 468.646 553.785 473.275C554.201 477.904 553.091 482.542 550.629 486.465C561.153 487.378 569.369 495.366 569.369 505.088C569.369 515.426 560.069 523.804 548.603 523.804C542.801 523.858 537.216 521.577 533.074 517.463C530.951 520.768 528.063 523.498 524.659 525.413C521.256 527.327 517.442 528.369 513.55 528.447C509.658 528.525 505.806 527.637 502.331 525.86C498.855 524.083 495.862 521.471 493.613 518.253C488.049 523.468 480.726 526.328 473.146 526.246C457.601 526.246 445 514.81 445 500.707C445 487.132 456.685 476.029 471.434 475.224Z" fill="white" fill-opacity="0.1"/>
<path d="M1283.43 475.224C1281.51 471.933 1280.49 468.182 1280.48 464.358C1280.48 450.895 1293.08 439.978 1308.63 439.978C1321.05 439.978 1331.59 446.955 1335.32 456.626C1339.37 454.436 1344.02 453.665 1348.54 454.434C1353.07 455.203 1357.21 457.469 1360.33 460.878C1363.45 464.287 1365.37 468.646 1365.79 473.275C1366.2 477.904 1365.09 482.542 1362.63 486.465C1373.15 487.378 1381.37 495.366 1381.37 505.088C1381.37 515.426 1372.07 523.804 1360.6 523.804C1354.8 523.858 1349.22 521.577 1345.07 517.463C1342.95 520.768 1340.06 523.498 1336.66 525.413C1333.26 527.327 1329.44 528.369 1325.55 528.447C1321.66 528.525 1317.81 527.637 1314.33 525.86C1310.86 524.083 1307.86 521.471 1305.61 518.253C1300.05 523.468 1292.73 526.328 1285.15 526.246C1269.6 526.246 1257 514.81 1257 500.707C1257 487.132 1268.68 476.029 1283.43 475.224Z" fill="white" fill-opacity="0.25"/>
<path d="M1089.43 319.362C1087.51 316.071 1086.49 312.32 1086.48 308.496C1086.48 295.033 1099.08 284.116 1114.63 284.116C1127.05 284.116 1137.59 291.093 1141.32 300.764C1145.37 298.574 1150.02 297.803 1154.54 298.572C1159.07 299.341 1163.21 301.607 1166.33 305.016C1169.45 308.425 1171.37 312.784 1171.79 317.413C1172.2 322.042 1171.09 326.68 1168.63 330.603C1179.15 331.516 1187.37 339.504 1187.37 349.226C1187.37 359.564 1178.07 367.942 1166.6 367.942C1160.8 367.996 1155.22 365.715 1151.07 361.6C1148.95 364.906 1146.06 367.636 1142.66 369.55C1139.26 371.465 1135.44 372.507 1131.55 372.585C1127.66 372.663 1123.81 371.774 1120.33 369.997C1116.86 368.22 1113.86 365.609 1111.61 362.39C1106.05 367.605 1098.73 370.465 1091.15 370.384C1075.6 370.384 1063 358.948 1063 344.845C1063 331.269 1074.68 320.167 1089.43 319.362Z" fill="white" fill-opacity="0.15"/>
<path d="M1295.43 114.246C1293.51 110.955 1292.49 107.204 1292.48 103.38C1292.48 89.9175 1305.08 79 1320.63 79C1333.05 79 1343.59 85.9773 1347.32 95.6482C1351.37 93.4578 1356.02 92.687 1360.54 93.4562C1365.07 94.2254 1369.21 96.4913 1372.33 99.9C1375.45 103.309 1377.37 107.668 1377.79 112.297C1378.2 116.926 1377.09 121.564 1374.63 125.487C1385.15 126.4 1393.37 134.388 1393.37 144.11C1393.37 154.448 1384.07 162.826 1372.6 162.826C1366.8 162.88 1361.22 160.599 1357.07 156.484C1354.95 159.79 1352.06 162.52 1348.66 164.434C1345.26 166.349 1341.44 167.391 1337.55 167.469C1333.66 167.547 1329.81 166.658 1326.33 164.881C1322.86 163.104 1319.86 160.493 1317.61 157.275C1312.05 162.489 1304.73 165.35 1297.15 165.268C1281.6 165.268 1269 153.832 1269 139.729C1269 126.153 1280.68 115.051 1295.43 114.246Z" fill="white" fill-opacity="0.35"/>
<defs>
<linearGradient id="paint0_linear_50_17" x1="719.5" y1="0" x2="719.5" y2="699" gradientUnits="userSpaceOnUse">
<stop stop-color="#6EBAE4" stop-opacity="0"/>
<stop offset="0.21875" stop-color="#6EBAE4" stop-opacity="0.338"/>
<stop offset="1" stop-color="#6EBAE4"/>
</linearGradient>
</defs>
</svg>
