<svg width="1439" height="512" viewBox="0 0 1439 512" fill="none" xmlns="http://www.w3.org/2000/svg">
<rect width="1439" height="512" fill="url(#paint0_linear_50_14)"/>
<mask id="mask0_50_14" style="mask-type:alpha" maskUnits="userSpaceOnUse" x="0" y="0" width="1439" height="512">
<rect width="1439" height="512" fill="url(#paint1_linear_50_14)"/>
</mask>
<g mask="url(#mask0_50_14)">
<path d="M966.644 139.757C955.247 121.668 949.205 101.044 949.146 80.0225C949.146 6.01683 1023.82 -54 1115.94 -54C1189.56 -54 1251.99 -15.6434 1274.11 37.52C1298.09 25.4787 1325.65 21.2414 1352.47 25.47C1379.28 29.6987 1403.86 42.1552 1422.34 60.8934C1440.83 79.6317 1452.19 103.596 1454.65 129.044C1457.12 154.491 1450.54 179.988 1435.95 201.551C1498.32 206.571 1547 250.484 1547 303.929C1547 360.759 1491.89 406.815 1423.94 406.815C1389.56 407.113 1356.46 394.575 1331.92 371.956C1319.34 390.129 1302.22 405.133 1282.06 415.658C1261.89 426.184 1239.29 431.911 1216.22 432.339C1193.16 432.768 1170.33 427.885 1149.74 418.116C1129.14 408.348 1111.41 393.991 1098.08 376.299C1065.11 404.967 1021.71 420.69 976.789 420.24C884.675 420.24 810 357.374 810 279.843C810 205.217 879.243 144.185 966.644 139.757Z" fill="white"/>
<path d="M57.052 190.581C47.3711 175.216 42.2395 157.698 42.1892 139.841C42.1892 76.9795 105.618 26 183.858 26C246.394 26 299.422 58.5809 318.21 103.739C338.582 93.5108 361.986 89.9116 384.765 93.5035C407.544 97.0954 428.415 107.676 444.118 123.593C459.821 139.51 469.472 159.866 471.562 181.481C473.653 203.097 468.065 224.754 455.673 243.07C508.649 247.334 550 284.635 550 330.032C550 378.305 503.193 417.426 445.475 417.426C416.275 417.679 388.161 407.029 367.311 387.815C356.63 403.252 342.089 415.997 324.959 424.938C307.83 433.878 288.631 438.743 269.041 439.107C249.45 439.471 230.062 435.323 212.569 427.025C195.077 418.728 180.012 406.533 168.689 391.505C140.684 415.856 103.822 429.211 65.669 428.829C-12.5715 428.829 -76 375.43 -76 309.573C-76 246.184 -17.1859 194.343 57.052 190.581Z" fill="white"/>
</g>
<defs>
<linearGradient id="paint0_linear_50_14" x1="719.5" y1="0" x2="719.5" y2="512" gradientUnits="userSpaceOnUse">
<stop stop-color="#FFCD4B"/>
<stop offset="1" stop-color="white"/>
</linearGradient>
<linearGradient id="paint1_linear_50_14" x1="719.5" y1="0" x2="719.5" y2="512" gradientUnits="userSpaceOnUse">
<stop stop-color="#FFCD4B"/>
<stop offset="1" stop-color="white"/>
</linearGradient>
</defs>
</svg>
