<svg width="70" height="70" viewBox="0 0 70 70" fill="none" xmlns="http://www.w3.org/2000/svg">
<g opacity="0.8">
<path fill-rule="evenodd" clip-rule="evenodd" d="M21.875 50.3125C21.875 49.7323 22.1055 49.1759 22.5157 48.7657C22.9259 48.3555 23.4823 48.125 24.0625 48.125H63.4375C64.0177 48.125 64.5741 48.3555 64.9843 48.7657C65.3945 49.1759 65.625 49.7323 65.625 50.3125C65.625 50.8927 65.3945 51.4491 64.9843 51.8593C64.5741 52.2695 64.0177 52.5 63.4375 52.5H24.0625C23.4823 52.5 22.9259 52.2695 22.5157 51.8593C22.1055 51.4491 21.875 50.8927 21.875 50.3125ZM21.875 32.8125C21.875 32.2323 22.1055 31.6759 22.5157 31.2657C22.9259 30.8555 23.4823 30.625 24.0625 30.625H63.4375C64.0177 30.625 64.5741 30.8555 64.9843 31.2657C65.3945 31.6759 65.625 32.2323 65.625 32.8125C65.625 33.3927 65.3945 33.9491 64.9843 34.3593C64.5741 34.7695 64.0177 35 63.4375 35H24.0625C23.4823 35 22.9259 34.7695 22.5157 34.3593C22.1055 33.9491 21.875 33.3927 21.875 32.8125ZM21.875 15.3125C21.875 14.7323 22.1055 14.1759 22.5157 13.7657C22.9259 13.3555 23.4823 13.125 24.0625 13.125H63.4375C64.0177 13.125 64.5741 13.3555 64.9843 13.7657C65.3945 14.1759 65.625 14.7323 65.625 15.3125C65.625 15.8927 65.3945 16.4491 64.9843 16.8593C64.5741 17.2695 64.0177 17.5 63.4375 17.5H24.0625C23.4823 17.5 22.9259 17.2695 22.5157 16.8593C22.1055 16.4491 21.875 15.8927 21.875 15.3125Z" fill="white" stroke="white"/>
<path d="M9.80926 9.59851C9.88368 9.35726 10.0334 9.14621 10.2366 8.9963C10.4397 8.84639 10.6855 8.7655 10.938 8.7655C11.1905 8.7655 11.4363 8.84639 11.6394 8.9963C11.8426 9.14621 11.9923 9.35726 12.0668 9.59851L12.7755 11.9173C12.9286 12.4204 13.388 12.766 13.9043 12.766H16.3149C17.448 12.766 17.9336 14.2229 17.0324 14.9229L14.9849 16.511C14.7914 16.6623 14.6485 16.8689 14.575 17.1033C14.5016 17.3377 14.5011 17.5888 14.5736 17.8235L15.3305 20.3129C15.6718 21.4329 14.3986 22.3341 13.4799 21.6254L11.6555 20.2079C11.4504 20.0482 11.1979 19.9616 10.938 19.9616C10.6781 19.9616 10.4256 20.0482 10.2205 20.2079L8.39613 21.621C7.47738 22.3341 6.20863 21.4329 6.54551 20.3129L7.30238 17.8191C7.37395 17.5851 7.37297 17.3348 7.29956 17.1013C7.22616 16.8678 7.08376 16.662 6.89113 16.511L4.84363 14.9229C3.94238 14.2229 4.42801 12.766 5.56113 12.766H7.96738C8.22242 12.7652 8.47041 12.6822 8.67453 12.5293C8.87866 12.3764 9.02804 12.1618 9.1005 11.9173L9.80926 9.59851ZM9.80926 27.0985C9.88368 26.8573 10.0334 26.6462 10.2366 26.4963C10.4397 26.3464 10.6855 26.2655 10.938 26.2655C11.1905 26.2655 11.4363 26.3464 11.6394 26.4963C11.8426 26.6462 11.9923 26.8573 12.0668 27.0985L12.7755 29.4173C12.9286 29.9204 13.388 30.266 13.9043 30.266H16.3149C17.448 30.266 17.9336 31.7229 17.0324 32.4229L14.9849 34.011C14.7914 34.1623 14.6485 34.3689 14.575 34.6033C14.5016 34.8377 14.5011 35.0888 14.5736 35.3235L15.3305 37.8129C15.6718 38.9285 14.3986 39.8341 13.4799 39.1254L11.6555 37.7079C11.4504 37.5482 11.1979 37.4616 10.938 37.4616C10.6781 37.4616 10.4256 37.5482 10.2205 37.7079L8.39613 39.121C7.47738 39.8341 6.20863 38.9329 6.54551 37.8129L7.30238 35.3191C7.37395 35.0851 7.37297 34.8348 7.29956 34.6013C7.22616 34.3678 7.08376 34.162 6.89113 34.011L4.84363 32.4229C3.94238 31.7229 4.42801 30.266 5.56113 30.266H7.96738C8.22242 30.2652 8.47041 30.1822 8.67453 30.0293C8.87866 29.8764 9.02804 29.6618 9.1005 29.4173L9.80926 27.0985ZM9.80926 44.5985C9.88368 44.3573 10.0334 44.1462 10.2366 43.9963C10.4397 43.8464 10.6855 43.7655 10.938 43.7655C11.1905 43.7655 11.4363 43.8464 11.6394 43.9963C11.8426 44.1462 11.9923 44.3573 12.0668 44.5985L12.7755 46.9173C12.9286 47.4204 13.388 47.766 13.9043 47.766H16.3149C17.448 47.766 17.9336 49.2229 17.0324 49.9229L14.9849 51.511C14.7914 51.6623 14.6485 51.8689 14.575 52.1033C14.5016 52.3377 14.5011 52.5888 14.5736 52.8235L15.3305 55.3129C15.6718 56.4285 14.3986 57.3341 13.4799 56.6254L11.6555 55.2079C11.4504 55.0482 11.1979 54.9616 10.938 54.9616C10.6781 54.9616 10.4256 55.0482 10.2205 55.2079L8.39613 56.621C7.47738 57.3341 6.20863 56.4329 6.54551 55.3129L7.30238 52.8191C7.37395 52.5851 7.37297 52.3348 7.29956 52.1013C7.22616 51.8678 7.08376 51.662 6.89113 51.511L4.84363 49.9229C3.94238 49.2229 4.42801 47.766 5.56113 47.766H7.96738C8.22242 47.7652 8.47041 47.6822 8.67453 47.5293C8.87866 47.3764 9.02804 47.1618 9.1005 46.9173L9.80926 44.5985Z" fill="white" stroke="white"/>
</g>
</svg>
