<svg width="68" height="68" viewBox="0 0 68 68" fill="none" xmlns="http://www.w3.org/2000/svg">
<g opacity="0.8">
<path d="M36.135 5.20307C35.4281 5.15088 34.7195 5.12474 34.0107 5.1247V1C34.8214 1.0004 35.6318 1.03066 36.4402 1.09074L36.135 5.20307ZM44.4009 7.05918C43.0787 6.54897 41.7207 6.13677 40.338 5.8259L41.2413 1.80019C42.8211 2.15492 44.3761 2.62513 45.8857 3.21084L44.4009 7.05918ZM50.0517 9.98771C49.462 9.59442 48.858 9.22295 48.2409 8.87405L50.2744 5.28556C51.6847 6.08466 53.0343 6.98627 54.3125 7.98311L51.7758 11.2375C51.2166 10.8012 50.6415 10.3857 50.0517 9.99184V9.98771ZM57.6164 17.3709C56.8005 16.2118 55.9003 15.1144 54.923 14.0877L57.9092 11.2416C59.0229 12.4172 60.0541 13.6752 60.9904 14.9951L57.6164 17.3709ZM60.6852 22.9475C60.4144 22.2936 60.12 21.6497 59.8025 21.0172L63.4858 19.161C64.2142 20.6092 64.8346 22.1091 65.3419 23.6487L61.4235 24.9397C61.2018 24.2669 60.9555 23.6023 60.6852 22.9475ZM62.8712 33.2881C62.8379 31.8706 62.7 30.4575 62.4588 29.0603L66.5216 28.3591C66.798 29.9513 66.9588 31.5681 67.0001 33.185L62.8754 33.2881H62.8712ZM62.3309 39.6319C62.467 38.9307 62.5784 38.2336 62.665 37.5283L66.7608 38.0357C66.5627 39.6449 66.2456 41.2373 65.8122 42.7997L61.836 41.6984C62.0257 41.0178 62.1907 40.329 62.3309 39.6319ZM58.4042 49.4446C59.1631 48.2484 59.8313 46.9945 60.4088 45.6993L64.1788 47.3698C63.5188 48.8547 62.7558 50.2819 61.8896 51.6513L58.4042 49.4446ZM54.428 54.4148C54.9312 53.9116 55.4138 53.3919 55.8716 52.8557L58.9982 55.5491C58.4687 56.163 57.917 56.7574 57.3442 57.331L54.428 54.4148Z" fill="white" stroke="white" stroke-linejoin="round"/>
<path d="M34.0105 5.1247C29.2624 5.12504 24.5878 6.2963 20.4005 8.53474C16.2133 10.7732 12.6427 14.0097 10.005 17.9577C7.36726 21.9056 5.74389 26.4431 5.27862 31.1683C4.81336 35.8935 5.52056 40.6604 7.3376 45.047C9.15464 49.4336 12.0254 53.3044 15.6957 56.3165C19.3659 59.3287 23.7224 61.3892 28.3792 62.3156C33.0359 63.2419 37.8493 63.0056 42.3929 61.6275C46.9365 60.2494 51.0702 57.772 54.4277 54.4148L57.3439 57.331C53.5068 61.1702 48.782 64.0036 43.5882 65.5804C38.3943 67.1571 32.8917 67.4284 27.5679 66.3702C22.2442 65.312 17.2636 62.957 13.0675 59.5139C8.87143 56.0708 5.58938 51.6458 3.51218 46.6311C1.43498 41.6163 0.626757 36.1667 1.15912 30.7649C1.69149 25.3632 3.548 20.1761 6.56418 15.6634C9.58036 11.1506 13.6631 7.45148 18.4506 4.89373C23.2381 2.33597 28.5825 0.998562 34.0105 1V5.1247Z" fill="white" stroke="white" stroke-linejoin="round"/>
<path d="M31.9481 13.3741C32.4951 13.3741 33.0196 13.5914 33.4064 13.9782C33.7932 14.365 34.0104 14.8895 34.0104 15.4365V36.9262L47.4075 44.5816C47.8686 44.8598 48.2026 45.3073 48.3381 45.8285C48.4737 46.3496 48.4 46.9032 48.1328 47.3707C47.8656 47.8383 47.4261 48.1828 46.9083 48.3306C46.3905 48.4785 45.8354 48.4179 45.3616 48.1618L30.9252 39.9125C30.6095 39.7321 30.3471 39.4716 30.1646 39.1572C29.9821 38.8429 29.8859 38.4858 29.8857 38.1223V15.4365C29.8857 14.8895 30.103 14.365 30.4898 13.9782C30.8766 13.5914 31.4011 13.3741 31.9481 13.3741Z" fill="white" stroke="white" stroke-linejoin="round"/>
</g>
</svg>
