<svg width="57" height="57" viewBox="0 0 57 57" fill="none" xmlns="http://www.w3.org/2000/svg">
<g opacity="0.8">
<path d="M19.2039 36.961H4.16349C3.05021 36.961 2.03713 36.293 1.61408 35.2576C1.19103 34.2223 1.42482 33.0422 2.21525 32.2518L12.8137 21.6533H4.6422C3.11701 21.6533 1.88127 20.4176 1.88127 18.8924C1.88127 17.3672 3.11701 16.1315 4.6422 16.1315H19.4711C20.5844 16.1315 21.5975 16.7994 22.0205 17.8348C22.4547 18.8701 22.2098 20.0502 21.4194 20.8407L10.8209 31.4391H19.2039C20.7291 31.4391 21.9649 32.6748 21.9649 34.2C21.9649 35.7252 20.7403 36.961 19.2039 36.961Z" fill="white"/>
<path d="M40.2338 14.0941H30.448C29.6131 14.0941 28.856 13.5932 28.5332 12.8139C28.2103 12.0346 28.3885 11.1551 28.9785 10.5539L35.4021 4.13027H30.7597C29.6131 4.13027 28.689 3.20625 28.689 2.05957C28.689 0.912891 29.6242 0 30.7709 0H40.4119C41.2469 0 42.0039 0.500977 42.3267 1.28027C42.6496 2.05957 42.4715 2.9502 41.8814 3.54023L35.4578 9.96387H40.2449C41.3916 9.96387 42.3156 10.8879 42.3156 12.0346C42.3156 13.1812 41.3804 14.0941 40.2338 14.0941Z" fill="white"/>
<path d="M51.0882 56.5324H30.7374C29.0675 56.5324 27.5535 55.5194 26.9078 53.9719C26.2621 52.4244 26.6183 50.6432 27.8095 49.452L41.4361 35.8254H31.3831C29.1009 35.8254 27.2417 33.9662 27.2417 31.684C27.2417 29.4018 29.1009 27.5426 31.3831 27.5426H51.4445C53.1144 27.5426 54.6285 28.5557 55.2742 30.1031C55.9199 31.6506 55.5636 33.4319 54.3724 34.6231L40.7458 48.2496H51.0882C53.3704 48.2496 55.2296 50.1088 55.2296 52.391C55.2296 54.6733 53.3704 56.5324 51.0882 56.5324Z" fill="white"/>
</g>
</svg>
